# xmcd
#
# Track frame offsets: 
#        182
#        8702
#        28200
#        47510
#        66335
#        88655
#        103522
#        118362
#        121652
#        144142
#        162680
#        181537
#        199087
#        219425
#        242100
#        262012
#        269377
#
# Disc length: 3616 seconds
#
# Revision: 7
# Processed by: cddbd v1.5.2PL0 Copyright (c) Steve Scherf et al.
# Submitted via: ExactAudioCopy v0.95a5
#
DISCID=f00e1e11
DTITLE=Missy Elliott - Supa Dupa Fly
DYEAR=1997
DGENRE=Rap
TTITLE0=Busta's Intro (featuring Busta Rhymes)
TTITLE1=Hit 'Em Wit Da Hee (featuring Lil' Kim
TTITLE2=Sock It 2 Me (featuring Da Brat)
TTITLE3=The Rain (Supa Dupa Fly)
TTITLE4=Beep Me 911 (featuring 702)
TTITLE5=They Don't Wanna Fuck Wit Me (featuring Timbaland)
TTITLE6=Pass Da Blunt (featuring Timbaland)
TTITLE7=Bite Our Style (Interlude)
TTITLE8=Friendly Skies (featuring Ginuwine)
TTITLE9=Best Friends (featuring Aaliyah)
TTITLE10=Don't Be Commin' (In My Face)
TTITLE11=Izzy Izzy Ahh
TTITLE12=Why You Hurt Me
TTITLE13=I'm Talkin'
TTITLE14=Gettaway (featuring Space and Nicole)
TTITLE15=Busta's Outro (featuring Busta Rhymes)
TTITLE16=Missy's Finale
EXTD=www.RapMusicGuide.com\n
EXTT0=
EXTT1=
EXTT2=
EXTT3=
EXTT4=
EXTT5=
EXTT6=
EXTT7=
EXTT8=
EXTT9=
EXTT10=
EXTT11=
EXTT12=
EXTT13=
EXTT14=
EXTT15=
EXTT16=
PLAYORDER=
